<svg xmlns="http://www.w3.org/2000/svg" xmlns:xlink="http://www.w3.org/1999/xlink" width="500" zoomAndPan="magnify" viewBox="0 0 375 374.999991" height="500" preserveAspectRatio="xMidYMid meet" version="1.0"><defs><clipPath id="bef4b82e04"><path d="M 0 61.363281 L 328 61.363281 L 328 290 L 0 290 Z M 0 61.363281 " clip-rule="nonzero"/></clipPath><clipPath id="e9847d8da9"><path d="M 136 260 L 181 260 L 181 313.363281 L 136 313.363281 Z M 136 260 " clip-rule="nonzero"/></clipPath></defs><path fill="#f4a300" d="M 61.71875 210.910156 C 59.476562 209.074219 56.769531 208.109375 53.964844 208.109375 C 53.460938 208.109375 52.953125 208.136719 52.449219 208.207031 C 49.023438 208.636719 45.964844 210.457031 43.832031 213.335938 L 26.941406 236.183594 C 22.460938 242.238281 23.515625 251.3125 29.246094 255.992188 C 31.890625 258.152344 35.1875 259.121094 38.519531 258.699219 C 41.941406 258.265625 45.003906 256.445312 47.132812 253.566406 L 64.027344 230.71875 C 68.507812 224.667969 67.449219 215.589844 61.71875 210.910156 Z M 61.71875 210.910156 " fill-opacity="1" fill-rule="nonzero"/><g clip-path="url(#bef4b82e04)"><path fill="#f4a300" d="M 239.601562 287.113281 L 185.058594 252.675781 C 184.945312 252.582031 184.839844 252.46875 184.71875 252.378906 C 178.914062 247.851562 171.902344 245.683594 164.652344 246.558594 C 164.222656 246.613281 163.824219 246.71875 163.40625 246.78125 C 162.839844 239.167969 159.378906 231.808594 153.179688 226.753906 C 147.492188 222.097656 140.363281 220.042969 133.117188 220.933594 C 132.867188 220.96875 132.625 221.039062 132.375 221.078125 C 132.050781 213.117188 128.535156 205.328125 122.082031 200.066406 C 116.375 195.410156 109.265625 193.355469 102.015625 194.261719 C 94.679688 195.183594 88.164062 199.007812 83.707031 205.0625 L 80.839844 208.945312 C 80.121094 209.921875 78.65625 209.777344 78.105469 208.703125 C 76.398438 205.402344 74.039062 202.417969 71.046875 199.96875 C 65.339844 195.3125 58.214844 193.242188 50.980469 194.148438 C 43.644531 195.070312 37.144531 198.910156 32.667969 204.957031 L 23.289062 217.636719 L 21.007812 217.960938 C 15.386719 213.65625 9.617188 209.308594 2.984375 206.179688 C 1.085938 205.289062 0.0820312 203.179688 0.582031 201.140625 L 28.792969 85.402344 C 29.367188 83.054688 31.71875 81.601562 34.074219 82.148438 C 46.054688 84.914062 60.222656 86.460938 74.976562 86.460938 C 97.148438 86.460938 120.617188 82.957031 139.742188 74.785156 C 159.445312 66.367188 170.457031 62.171875 181.582031 61.566406 C 183.296875 61.476562 183.976562 63.730469 182.496094 64.582031 C 165.144531 74.597656 146.113281 88.933594 139.140625 104.140625 C 139.109375 104.207031 139.070312 104.28125 139.035156 104.34375 C 139.035156 104.359375 139.019531 104.382812 139.011719 104.394531 C 138.988281 104.464844 138.957031 104.539062 138.933594 104.617188 C 138.882812 104.730469 138.828125 104.835938 138.792969 104.964844 L 121.800781 153.648438 C 120.207031 158.222656 120.519531 163.328125 122.6875 167.660156 C 124.804688 171.914062 128.40625 175.050781 132.859375 176.472656 C 142.753906 179.632812 161.714844 181.945312 177.613281 161.695312 C 177.683594 161.605469 177.742188 161.53125 177.8125 161.441406 C 184.71875 151.820312 189.707031 143.5 192.707031 138.535156 C 193.121094 137.839844 193.507812 137.1875 193.855469 136.613281 C 194.128906 136.175781 194.582031 135.886719 195.101562 135.84375 L 213.136719 134.316406 C 213.746094 134.261719 214.359375 134.445312 214.910156 134.835938 L 317.050781 207.761719 L 321.402344 210.875 C 338.03125 223.246094 317.578125 246.644531 300.871094 234 C 299.496094 233.039062 293.636719 228.972656 292.148438 227.921875 C 268.492188 211.464844 232.589844 186.394531 232.097656 186.054688 C 228.847656 183.832031 224.425781 184.589844 222.167969 187.816406 C 219.914062 191.042969 220.667969 195.539062 223.925781 197.746094 C 224.402344 198.070312 258.933594 222.195312 282.605469 238.671875 C 284.09375 239.722656 285.542969 240.734375 286.949219 241.699219 C 298.933594 250.738281 283.246094 271.886719 268.839844 262.105469 L 264.511719 259.058594 L 208.117188 219.382812 C 204.890625 217.117188 200.460938 217.902344 198.1875 221.121094 C 195.917969 224.332031 196.691406 228.785156 199.910156 231.050781 L 254.980469 269.808594 C 266.847656 278.242188 253.03125 295.675781 239.609375 287.113281 Z M 239.601562 287.113281 " fill-opacity="1" fill-rule="nonzero"/></g><path fill="#f4a300" d="M 273.097656 69.949219 C 251.8125 65.519531 231.710938 61.332031 215.824219 64.574219 C 205.8125 66.617188 161.230469 89.453125 151.804688 109.957031 L 134.945312 158.273438 C 134.484375 159.597656 134.855469 160.691406 135.117188 161.222656 C 135.34375 161.675781 135.875 162.492188 136.894531 162.816406 C 148.15625 166.429688 157.941406 163.101562 166 152.921875 C 172.519531 143.824219 177.296875 135.875 180.160156 131.113281 C 181.316406 129.183594 182.15625 127.792969 182.785156 126.863281 C 184.773438 123.917969 187.921875 122.050781 191.429688 121.753906 L 211.617188 120.039062 C 215.613281 119.691406 219.628906 120.820312 222.90625 123.175781 L 329.640625 199.394531 C 329.785156 199.5 329.929688 199.605469 330.066406 199.71875 C 333.894531 202.914062 336.664062 206.355469 338.664062 209.597656 C 352.40625 210.8125 359.539062 207.351562 370.800781 201.859375 C 371.214844 201.652344 371.636719 201.449219 372.070312 201.238281 C 373.9375 200.332031 374.917969 198.246094 374.417969 196.21875 L 345.730469 78.535156 C 345.164062 76.214844 342.851562 74.761719 340.515625 75.261719 C 319.929688 79.699219 296.191406 74.761719 273.105469 69.957031 Z M 273.097656 69.949219 " fill-opacity="1" fill-rule="nonzero"/><path fill="#f4a300" d="M 147.195312 255.863281 C 150.414062 249.910156 149.101562 241.972656 143.871094 237.703125 C 141.625 235.867188 138.921875 234.898438 136.117188 234.898438 C 135.609375 234.898438 135.105469 234.929688 134.597656 234.996094 C 131.175781 235.429688 128.113281 237.25 125.980469 240.128906 L 99.09375 276.496094 C 94.609375 282.550781 95.667969 291.625 101.398438 296.304688 C 104.042969 298.464844 107.335938 299.425781 110.671875 299.007812 C 114.09375 298.578125 117.15625 296.757812 119.285156 293.878906 L 125.746094 285.140625 C 126.3125 284.128906 126.925781 283.140625 127.628906 282.195312 L 146.054688 257.277344 C 146.417969 256.785156 146.816406 256.332031 147.203125 255.871094 Z M 147.195312 255.863281 " fill-opacity="1" fill-rule="nonzero"/><path fill="#f4a300" d="M 112.765625 211.015625 C 110.519531 209.179688 107.8125 208.214844 105.011719 208.214844 C 104.503906 208.214844 103.996094 208.242188 103.492188 208.3125 C 100.066406 208.742188 97.007812 210.5625 94.875 213.445312 L 58.960938 262.007812 C 54.480469 268.0625 55.539062 277.136719 61.265625 281.816406 C 63.914062 283.976562 67.214844 284.945312 70.539062 284.523438 C 73.964844 284.089844 77.023438 282.269531 79.15625 279.390625 L 115.070312 230.824219 C 119.550781 224.773438 118.492188 215.695312 112.765625 211.015625 Z M 112.765625 211.015625 " fill-opacity="1" fill-rule="nonzero"/><path fill="#f4a300" d="M 214.425781 302.011719 C 216.25 299.515625 216.953125 296.5 216.40625 293.515625 C 215.847656 290.445312 214.058594 287.777344 211.351562 286.003906 L 193.433594 274.226562 C 193.484375 280.046875 191.769531 285.914062 188.121094 290.847656 L 183.96875 296.453125 L 198.699219 306.136719 C 204.15625 308.425781 210.9375 306.792969 214.425781 302.011719 Z M 214.425781 302.011719 " fill-opacity="1" fill-rule="nonzero"/><g clip-path="url(#e9847d8da9)"><path fill="#f4a300" d="M 175.402344 263.324219 C 173.15625 261.488281 170.449219 260.519531 167.644531 260.519531 C 167.140625 260.519531 166.632812 260.550781 166.128906 260.617188 C 163.308594 260.972656 160.746094 262.28125 158.734375 264.328125 C 158.382812 264.886719 158.035156 265.445312 157.632812 265.984375 L 137.777344 292.828125 C 134.90625 298.722656 136.304688 306.316406 141.382812 310.464844 C 144.027344 312.628906 147.324219 313.59375 150.65625 313.171875 C 154.082031 312.742188 157.140625 310.921875 159.273438 308.039062 L 177.699219 283.125 C 182.179688 277.070312 181.121094 267.992188 175.394531 263.316406 Z M 175.402344 263.324219 " fill-opacity="1" fill-rule="nonzero"/></g></svg>