<svg xmlns="http://www.w3.org/2000/svg" xmlns:xlink="http://www.w3.org/1999/xlink" width="500" zoomAndPan="magnify" viewBox="0 0 375 374.999991" height="500" preserveAspectRatio="xMidYMid meet" version="1.0"><defs><clipPath id="aa368272cd"><path d="M 3.203125 0 L 371.453125 0 L 371.453125 375 L 3.203125 375 Z M 3.203125 0 " clip-rule="nonzero"/></clipPath></defs><g clip-path="url(#aa368272cd)"><path fill="#f4a300" d="M 239.503906 286.019531 C 238.1875 287.085938 236.773438 288.058594 235.261719 288.933594 C 224.023438 295.421875 210.519531 294.46875 200.464844 287.609375 C 198.308594 286.179688 195.640625 285.746094 193.136719 286.417969 C 190.636719 287.085938 188.542969 288.796875 187.390625 291.117188 C 182.109375 302.082031 170.890625 309.65625 157.914062 309.65625 C 144.9375 309.65625 133.71875 302.082031 128.4375 291.117188 C 127.285156 288.796875 125.191406 287.085938 122.691406 286.417969 C 120.1875 285.746094 117.519531 286.179688 115.363281 287.609375 C 105.308594 294.46875 91.800781 295.421875 80.566406 288.933594 C 69.328125 282.445312 63.398438 270.273438 64.308594 258.136719 C 64.46875 255.550781 63.511719 253.023438 61.679688 251.191406 C 59.847656 249.363281 57.320312 248.40625 54.738281 248.5625 C 42.601562 249.476562 30.429688 243.546875 23.941406 232.308594 C 17.453125 221.070312 18.40625 207.566406 25.261719 197.511719 C 26.691406 195.351562 27.125 192.683594 26.457031 190.183594 C 25.785156 187.683594 24.074219 185.589844 21.757812 184.433594 C 10.792969 179.15625 3.214844 167.9375 3.214844 154.960938 C 3.214844 141.984375 10.792969 130.765625 21.757812 125.484375 C 24.078125 124.328125 25.785156 122.238281 26.457031 119.734375 C 27.125 117.234375 26.691406 114.566406 25.261719 112.410156 C 18.40625 102.355469 17.453125 88.847656 23.941406 77.609375 C 30.429688 66.375 42.601562 60.445312 54.738281 61.355469 C 57.320312 61.515625 59.847656 60.558594 61.679688 58.726562 C 63.511719 56.894531 64.46875 54.367188 64.308594 51.785156 C 63.398438 39.648438 69.328125 27.476562 80.566406 20.988281 C 91.800781 14.5 105.308594 15.449219 115.363281 22.308594 C 117.519531 23.738281 120.1875 24.171875 122.691406 23.503906 C 125.191406 22.832031 127.285156 21.121094 128.4375 18.804688 C 133.71875 7.839844 144.9375 0.261719 157.914062 0.261719 C 170.890625 0.261719 182.109375 7.839844 187.386719 18.804688 C 188.542969 21.121094 190.636719 22.832031 193.136719 23.503906 C 195.636719 24.171875 198.308594 23.738281 200.464844 22.308594 C 210.519531 15.449219 224.023438 14.5 235.261719 20.988281 C 246.5 27.476562 252.429688 39.648438 251.519531 51.785156 C 251.359375 54.367188 252.316406 56.894531 254.148438 58.726562 C 255.976562 60.558594 258.507812 61.515625 261.089844 61.355469 C 273.226562 60.445312 285.398438 66.375 291.886719 77.609375 C 298.375 88.847656 297.421875 102.355469 290.566406 112.40625 C 289.136719 114.566406 288.699219 117.234375 289.371094 119.734375 C 290.039062 122.238281 291.75 124.328125 294.070312 125.484375 C 305.035156 130.765625 312.613281 141.984375 312.613281 154.960938 C 312.613281 167.9375 305.035156 179.15625 294.070312 184.433594 C 291.75 185.589844 290.039062 187.683594 289.371094 190.183594 C 288.699219 192.683594 289.136719 195.351562 290.566406 197.511719 C 297.421875 207.566406 298.375 221.070312 291.886719 232.308594 C 290.757812 234.261719 289.457031 236.054688 288.015625 237.679688 C 284.230469 236.507812 280.222656 236.238281 276.335938 236.871094 L 261.027344 221.5625 C 273.082031 202.628906 280.066406 180.152344 280.066406 156.046875 C 280.066406 88.585938 225.375 33.894531 157.914062 33.894531 C 90.453125 33.894531 35.761719 88.585938 35.761719 156.046875 C 35.761719 223.507812 90.453125 278.203125 157.914062 278.203125 C 182.019531 278.203125 204.496094 271.214844 223.429688 259.164062 L 238.734375 274.46875 C 238.105469 278.3125 238.363281 282.273438 239.503906 286.019531 Z M 280.703125 331.40625 L 249.847656 326.875 C 249.847656 326.875 236.574219 357.886719 230.386719 372.339844 C 229.796875 373.71875 228.480469 374.640625 226.988281 374.730469 C 225.496094 374.820312 224.078125 374.058594 223.332031 372.761719 C 213.171875 355.167969 186.925781 309.710938 186.925781 309.710938 C 190.660156 306.398438 193.824219 302.460938 196.253906 298.058594 C 209.367188 306.023438 226.460938 306.789062 240.792969 298.515625 C 242.28125 297.652344 243.703125 296.722656 245.050781 295.71875 C 245.289062 295.980469 245.535156 296.238281 245.789062 296.492188 Z M 128.894531 309.722656 C 128.894531 309.722656 102.882812 354.773438 92.632812 372.527344 C 91.875 373.839844 90.433594 374.605469 88.921875 374.492188 C 87.410156 374.382812 86.097656 373.417969 85.535156 372.011719 C 79.855469 357.691406 68.113281 328.105469 68.113281 328.105469 C 68.113281 328.105469 34.621094 332.117188 19.007812 333.984375 C 17.519531 334.164062 16.0625 333.484375 15.238281 332.238281 C 14.414062 330.988281 14.367188 329.382812 15.113281 328.085938 C 25.566406 309.980469 53.171875 262.167969 53.171875 262.167969 C 53.675781 276.652344 61.464844 290.679688 75.03125 298.515625 C 89.328125 306.765625 106.363281 306.027344 119.566406 298.054688 C 121.976562 302.457031 125.144531 306.402344 128.894531 309.722656 Z M 243.386719 263.476562 L 224.722656 244.808594 C 206.128906 258.828125 182.992188 267.136719 157.914062 267.136719 C 96.5625 267.136719 46.824219 217.398438 46.824219 156.046875 C 46.824219 94.699219 96.5625 44.957031 157.914062 44.957031 C 219.261719 44.957031 269.003906 94.699219 269.003906 156.046875 C 269.003906 181.125 260.691406 204.261719 246.675781 222.855469 L 265.339844 241.519531 C 264.363281 242.246094 263.429688 243.054688 262.546875 243.9375 C 262.5625 243.925781 245.789062 260.695312 245.789062 260.695312 C 244.910156 261.574219 244.109375 262.503906 243.386719 263.476562 Z M 157.914062 242.945312 C 205.789062 242.945312 244.808594 203.921875 244.808594 156.046875 C 244.808594 108.191406 205.789062 69.152344 157.914062 69.152344 C 110.058594 69.152344 71.015625 108.191406 71.015625 156.046875 C 71.015625 203.921875 110.058594 242.945312 157.914062 242.945312 Z M 157.914062 231.882812 C 116.152344 231.882812 82.082031 197.828125 82.082031 156.046875 C 82.082031 114.285156 116.152344 80.214844 157.914062 80.214844 C 199.695312 80.214844 233.746094 114.285156 233.746094 156.046875 C 233.746094 197.828125 199.695312 231.882812 157.914062 231.882812 Z M 110.691406 162.703125 L 138.484375 187.066406 C 143.070312 191.085938 149.917969 191.113281 154.535156 187.125 L 205.070312 143.476562 C 210.175781 139.0625 210.742188 131.335938 206.328125 126.230469 C 201.917969 121.121094 194.191406 120.558594 189.085938 124.96875 L 146.601562 161.664062 L 126.808594 144.316406 C 121.734375 139.867188 114.003906 140.375 109.554688 145.449219 C 105.109375 150.527344 105.617188 158.257812 110.691406 162.703125 Z M 253.613281 268.519531 L 270.386719 251.746094 C 275.914062 246.203125 284.988281 246.203125 290.535156 251.746094 L 367.621094 328.835938 C 373.167969 334.378906 373.167969 343.4375 367.621094 348.984375 L 350.847656 365.753906 C 345.300781 371.300781 336.226562 371.300781 330.699219 365.753906 L 253.613281 288.667969 C 248.066406 283.125 248.066406 274.066406 253.613281 268.519531 Z M 253.613281 268.519531 " fill-opacity="1" fill-rule="evenodd"/></g></svg>